<?xml version="1.0" encoding="UTF-8"?>
<svg xmlns="http://www.w3.org/2000/svg" version="1.1" viewBox="0 0 300 300">
  <defs>
    <style>
      .cls-1 {
        fill: #016b6b;
      }

      .cls-2 {
        fill: #015051;
      }

      .cls-3 {
        fill: #001717;
      }

      .cls-4 {
        fill: #002122;
      }

      .cls-5 {
        fill: #013535;
      }
    </style>
  </defs>
  <!-- Generator: Adobe Illustrator 28.6.0, SVG Export Plug-In . SVG Version: 1.2.0 Build 709)  -->
  <g>
    <g id="Layer_1">
      <g>
        <path class="cls-3" d="M132.3,99.6h-.4v-36.7l.4-.4v-.2c.1,0,135.4,87.7,135.4,87.7l-135.4-50.3h0ZM132.3,200.4h0s135.4-50.3,135.4-50.3l-135.3,87.7v-.2h-.5v-37h.4Z"/>
        <path class="cls-2" d="M194.6,4.3l73,145.7L132.4,62.3h-.2c0-.1,0-.2,0-.2L194.2,4.7l.4-.4ZM267.7,150l-73,145.7-.4-.4-61.9-57.5h0c0,0,.2-.2.2-.2l135.3-87.7Z"/>
        <path class="cls-1" d="M132.2,62.2h.2c0,.1-.1.3-.1.3H33.2l-.9-.3L57.1,4.6h.1c0,0,137,0,137,0l-61.9,57.4h0ZM132.3,62.5l-.4.4v-.4h.4ZM132.3,237.5v.2c.1,0,0,.1,0,.1h0c0,0,61.9,57.5,61.9,57.5H57.1c0,0-24.7-57.5-24.7-57.5l.8-.3h98.3l.4.4v-.4h.4Z"/>
        <path class="cls-2" d="M132.2,99.7l135.4,50.3h0c0,0-135.4,50.3-135.4,50.3h0s-.4.2-.4.2v-101h.4c0,.1,0,.2,0,.2Z"/>
        <path class="cls-1" d="M131.9,237.5v.4l-.4-.4h.4Z"/>
        <path class="cls-4" d="M131.9,200.5v37h-.4l-28.2-26.3,28.6-10.7Z"/>
        <path class="cls-1" d="M131.9,200.4h0c0,.1-28.6,10.8-28.6,10.8l-65-61.1v-.2l65-61.1,28.6,10.7v100.9Z"/>
        <path class="cls-4" d="M131.9,62.9v36.6l-28.6-10.7,28.6-25.9Z"/>
        <path class="cls-5" d="M131.9,62.5v.4l-28.6,25.9-70-26.3h98.6ZM131.4,237.5H33.2l70.1-26.3,28.2,26.3Z"/>
      </g>
    </g>
  </g>
</svg>