<?xml version="1.0" encoding="UTF-8"?>
<svg xmlns="http://www.w3.org/2000/svg" version="1.1" viewBox="0 0 300 300">
  <defs>
    <style>
      .cls-1 {
        fill: #001e36;
      }

      .cls-2 {
        fill: #31a8ff;
      }
    </style>
  </defs>
  <!-- Generator: Adobe Illustrator 28.6.0, SVG Export Plug-In . SVG Version: 1.2.0 Build 709)  -->
  <g>
    <g id="Layer_2">
      <g>
        <path class="cls-1" d="M53.5,4.3h193.1c29.3,0,52.9,23.7,52.9,52.9v185.6c0,29.3-23.7,52.9-52.9,52.9H53.5c-29.3,0-52.9-23.7-52.9-52.9V57.2C.5,27.9,24.2,4.3,53.5,4.3Z"/>
        <path class="cls-2" d="M67.8,208.7V80.5c0-.9.4-1.4,1.2-1.4,2.1,0,4.1,0,7-.1,3-.1,6.1-.1,9.5-.2s7-.1,10.8-.2,7.6-.1,11.3-.1c10.2,0,18.7,1.2,25.7,3.9,6.2,2.1,12,5.6,16.7,10.2,4,4,7.1,8.8,9.1,14.2,1.9,5.2,2.9,10.6,2.9,16.2,0,10.7-2.5,19.6-7.5,26.5-5,7-12,12.2-20.1,15.2-8.5,3.1-17.8,4.2-28,4.2s-5,0-6.2-.1-3-.1-5.4-.1v40c.1.9-.5,1.6-1.4,1.7h-24.2c-1,0-1.5-.5-1.5-1.6h0ZM94.9,103.2v41.9c1.7.1,3.4.2,4.9.2h6.6c4.9,0,9.7-.7,14.3-2.2,4-1.1,7.5-3.5,10.2-6.6,2.6-3.1,3.9-7.3,3.9-12.8.1-3.9-.9-7.7-2.9-11.1-2.1-3.2-5.1-5.7-8.7-7.1-4.6-1.9-9.6-2.6-14.7-2.5-3.2,0-6.1,0-8.5.1-2.5-.1-4.2,0-5.1.1h0ZM239.7,137.4c-3.7-2-7.7-3.4-12-4.2-4.6-1-9.2-1.6-14-1.6-2.5-.1-5.1.2-7.5.9-1.6.4-3,1.2-3.9,2.5-.6,1-1,2.2-1,3.4s.5,2.2,1.2,3.2c1.1,1.4,2.6,2.5,4.2,3.4,2.9,1.5,5.9,2.9,8.8,4.1,6.7,2.2,13.2,5.4,19.2,9.1,4.1,2.6,7.5,6.1,9.8,10.3,2,4,3,8.3,2.9,12.8.1,5.9-1.6,11.7-4.9,16.6-3.5,5-8.3,8.8-14,11.1-6.1,2.6-13.6,4-22.5,4s-11.3-.5-16.9-1.6c-4.4-.7-8.7-2.1-12.7-4-.9-.5-1.5-1.4-1.4-2.4v-21.7c0-.4.1-.9.5-1.1s.7-.1,1.1.1c4.9,2.9,10,4.9,15.4,6.1,4.7,1.2,9.7,1.9,14.7,1.9s8.1-.6,10.3-1.7c2-.9,3.4-3,3.4-5.2s-1-3.4-3-5-6.1-3.5-12.2-5.9c-6.4-2.2-12.2-5.2-17.7-9-3.9-2.7-7.1-6.4-9.5-10.6-2-4-3-8.3-2.9-12.7,0-5.4,1.5-10.5,4.2-15.1,3.1-5,7.7-9,13.1-11.5,5.9-3,13.2-4.4,22-4.4s10.3.4,15.4,1.1c3.7.5,7.3,1.5,10.7,2.9.5.1,1,.6,1.2,1.1.1.5.2,1,.2,1.5v20.3c0,.5-.2,1-.6,1.2-1.1.2-1.7.2-2.2,0h0Z"/>
      </g>
    </g>
  </g>
</svg>