<?xml version="1.0" encoding="UTF-8"?>
<svg xmlns="http://www.w3.org/2000/svg" version="1.1" viewBox="0 0 300 300">
  <defs>
    <style>
      .cls-1 {
        fill: #ff9a00;
      }

      .cls-2 {
        fill: #300;
      }
    </style>
  </defs>
  <!-- Generator: Adobe Illustrator 28.6.0, SVG Export Plug-In . SVG Version: 1.2.0 Build 709)  -->
  <g>
    <g id="Layer_3">
      <g>
        <path class="cls-2" d="M53.5,4.3h193.1c29.3,0,52.9,23.7,52.9,52.9v185.6c0,29.3-23.7,52.9-52.9,52.9H53.5c-29.3,0-52.9-23.7-52.9-52.9V57.2C.5,27.9,24.2,4.3,53.5,4.3Z"/>
        <path class="cls-1" d="M145.4,179.1h-46.3l-9.5,29.3c-.2,1.1-1.2,1.9-2.4,1.7h-23.4c-1.4,0-1.7-.7-1.4-2.2l40.1-115.5c.4-1.2.7-2.6,1.2-4.1.5-2.6.7-5.4.7-8.1-.1-.6.4-1.2,1-1.4h32.3c1,0,1.5.4,1.6,1l45.5,128.3c.4,1.4,0,2-1.2,2h-26c-.9.1-1.7-.5-2-1.4l-10.2-29.6ZM106.3,153.9h31.6c-.7-2.6-1.7-5.7-2.9-9-1.1-3.4-2.2-7-3.4-10.7-1.2-3.9-2.4-7.6-3.6-11.5s-2.4-7.5-3.4-11.1c-1-3.5-1.9-6.7-2.7-9.7h-.2c-1.1,5.4-2.5,10.7-4.2,16.1-1.9,6-3.7,12.2-5.7,18.4-1.7,6.4-3.6,12.2-5.5,17.4h0ZM212,100.2c-4.1.1-8.1-1.5-11.1-4.4-2.9-3.1-4.4-7.2-4.2-11.5-.1-4.2,1.5-8.2,4.5-11.1,3-2.9,7-4.4,11.1-4.4s8.6,1.5,11.3,4.4c2.7,3,4.2,7,4.1,11.1.1,4.2-1.4,8.3-4.4,11.5-2.9,3-7.1,4.6-11.3,4.4h0ZM198.1,208.3v-95.9c0-1.2.5-1.7,1.6-1.7h24.7c1.1,0,1.6.6,1.6,1.7v95.9c0,1.4-.5,2-1.6,2h-24.4c-1.2,0-1.9-.7-1.9-2Z"/>
      </g>
    </g>
  </g>
</svg>